<svg xmlns="http://www.w3.org/2000/svg" viewBox="0 0 705 705" width="705" height="705">
  <defs>
    <!-- Neon glow filter -->
    <filter id="neon" x="-20%" y="-20%" width="140%" height="140%">
      <feMerge>
        <feMergeNode in="SourceGraphic"/>
      </feMerge>
    </filter>
    <clipPath id="bgClip">
      <rect x="0" y="0" width="705" height="705" rx="155" ry="155"/>
    </clipPath>
    <!-- Clip the liquid to the inside of the upper trapezoid -->
    <clipPath id="liquidClip">
      <path d="M 215 90 L 490 90 L 423 400 L 282 400 Z"/>
    </clipPath>
  </defs>

  <!-- Dark rounded background -->
  <rect x="0" y="0" width="1024" height="1024" fill="#1B1C24"/>

  <g clip-path="url(#bgClip)">
    <!-- Cyan neon jigger outline -->
    <g fill="none" stroke="#3EC8FF" stroke-width="11" stroke-linejoin="round" stroke-linecap="round" filter="url(#neon)">
      <!-- Upper cup -->
      <path d="M 205 80 L 500 80 L 430 410 L 275 410 Z"/>
      <!-- Lower cup (smaller, inverted flare) -->
      <path d="M 275 425 L 430 425 L 485 565 L 220 565 Z"/>
    </g>

    <!-- Pink liquid with wavy top, clipped to inside of upper cup -->
    <g clip-path="url(#liquidClip)">
      <path d="M 240 230
               C 290 195, 330 245, 370 220
               S 440 195, 470 215
               L 470 410
               L 240 410 Z"
            fill="none"
            stroke="#FF3D8A"
            stroke-width="10"
            stroke-linejoin="round"
            stroke-linecap="round"
            filter="url(#neon)"/>
    </g>

    <!-- Pink neon % symbol -->
    <g fill="none" stroke="#FF3D8A" stroke-width="11" stroke-linecap="round" stroke-linejoin="round" filter="url(#neon)">
      <circle cx="318" cy="272" r="22"/>
      <circle cx="385" cy="338" r="22"/>
      <line x1="400" y1="252" x2="303" y2="358"/>
    </g>
  </g>
</svg>
